{"title":"A.Glimpse.Inside.The.Mind.Of.Charles.Swan.III.2012.LIMITED.DVDRi","uid":8428239,"size":735018550,"categoryP":"video","categoryS":"movies","magnet":"?xt=urn:btih:b3bbea001d86f6e2aca638ab73eb276c151a4104&amp;dn=A.Glimpse.Inside.The.Mind.Of.Charles.Swan.III.2012.LIMITED.DVDRi&amp;tr=udp%3A%2F%2Ftracker.openbittorrent.com%3A80&amp;tr=udp%3A%2F%2Fopen.demonii.com%3A1337&amp;tr=udp%3A%2F%2Ftracker.coppersurfer.tk%3A6969&amp;tr=udp%3A%2F%2Fexodus.desync.com%3A6969","seeders":0,"leechers":0,"uploader":"xxxlavalxxx","files":-1,"time":1367415868,"description":"\n\n &lt;a href=&quot;\nhttp://www.imdb.com/title/tt2044729/&quot; rel=&quot;nofollow&quot; target=&quot;_NEW&quot;&gt;\nhttp://www.imdb.com/title/tt2044729/&lt;/a&gt;\n\n\nA graphic designer's enviable life slides into despair when his girlfriend breaks up with him. \n\n\n\nDirector:\n Roman Coppola \n\nWriter:\n Roman Coppola \n\nStars:\n Charlie Sheen, Jason Schwartzman, Bill Murray \n\nGenres:\n  Comedy \n\nCountry:\n USA \n\nLanguage:\n English | Russian | Spanish \n\n\n\nFormat                                   : AVI\nFormat/Info                              : Audio Video Interleave\nFile size                                : 701 MiB\nDuration                                 : 1h 25mn\nOverall bit rate mode                    : Variable\nOverall bit rate                         : 1 142 Kbps\nWriting application                      : VirtualDubMod 1.5.10.2 (build 2540/release)\nWriting library                          : VirtualDubMod build 2540/release\n\nVideo\nID                                       : 0\nFormat                                   : MPEG-4 Visual\nFormat profile                           : Advanced Simple@L5\nFormat settings, BVOP                    : 2\nFormat settings, QPel                    : No\nFormat settings, GMC                     : No warppoints\nFormat settings, Matrix                  : Default (H.263)\nCodec ID                                 : XVID\nCodec ID/Hint                            : XviD\nDuration                                 : 1h 25mn\nBit rate                                 : 1 007 Kbps\nWidth                                    : 640 pixels\nHeight                                   : 352 pixels\nDisplay aspect ratio                     : 16:9\nFrame rate                               : 23.976 fps\nColor space                              : YUV\nChroma subsampling                       : 4:2:0\nBit depth                                : 8 bits\nScan type                                : Progressive\nCompression mode                         : Lossy\nBits/(Pixel*Frame)                       : 0.186\nStream size                              : 618 MiB (88%)\nWriting library                          : XviD 61\n\nAudio\nID                                       : 1\nFormat                                   : MPEG Audio\nFormat version                           : Version 1\nFormat profile                           : Layer 3\nMode                                     : Joint stereo\nMode extension                           : MS Stereo\nCodec ID                                 : 55\nCodec ID/Hint                            : MP3\nDuration                                 : 1h 25mn\nBit rate mode                            : Variable\nBit rate                                 : 128 Kbps\nChannel(s)                               : 2 channels\nSampling rate                            : 48.0 KHz\nCompression mode                         : Lossy\nStream size                              : 75.0 MiB (11%)\nAlignment                                : Aligned on interleaves\nInterleave, duration                     : 24 ms (0.58 video frame)\nInterleave, preload duration             : 150 ms\nWriting library                          : LAME3.98 \nEncoding settings                        : -m j -V 4 -q 2 -lowpass 17 --abr 128\n\n\n\n &lt;a href=&quot;\nhttp://addpix.net/viewer.php?file=31156945360707773217.jpg&quot; rel=&quot;nofollow&quot; target=&quot;_NEW&quot;&gt;\nhttp://addpix.net/viewer.php?file=31156945360707773217.jpg&lt;/a&gt; &lt;a href=&quot;\nhttp://addpix.net/viewer.php?file=94556058252028543004.jpg&quot; rel=&quot;nofollow&quot; target=&quot;_NEW&quot;&gt;\nhttp://addpix.net/viewer.php?file=94556058252028543004.jpg&lt;/a&gt; &lt;a href=&quot;\nhttp://addpix.net/viewer.php?file=02632122672612163227.jpg&quot; rel=&quot;nofollow&quot; target=&quot;_NEW&quot;&gt;\nhttp://addpix.net/viewer.php?file=02632122672612163227.jpg&lt;/a&gt; &lt;a href=&quot;\nhttp://addpix.net/viewer.php?file=30581096681537636998.jpg&quot; rel=&quot;nofollow&quot; target=&quot;_NEW&quot;&gt;\nhttp://addpix.net/viewer.php?file=30581096681537636998.jpg&lt;/a&gt; &lt;a href=&quot;\nhttp://addpix.net/viewer.php?file=31705061998686430964.jpg&quot; rel=&quot;nofollow&quot; target=&quot;_NEW&quot;&gt;\nhttp://addpix.net/viewer.php?file=31705061998686430964.jpg&lt;/a&gt;\n","torrent":{"xt":"urn:btih:b3bbea001d86f6e2aca638ab73eb276c151a4104","amp;dn":"A.Glimpse.Inside.The.Mind.Of.Charles.Swan.III.2012.LIMITED.DVDRi","amp;tr":["udp%3A%2F%2Ftracker.openbittorrent.com%3A80","udp%3A%2F%2Fopen.demonii.com%3A1337","udp%3A%2F%2Ftracker.coppersurfer.tk%3A6969","udp%3A%2F%2Fexodus.desync.com%3A6969"],"infoHash":"b3bbea001d86f6e2aca638ab73eb276c151a4104","infoHashBuffer":{"type":"Buffer","data":[179,187,234,0,29,134,246,226,172,166,56,171,115,235,39,108,21,26,65,4]},"announce":[],"urlList":[]}}